<svg width="427" height="306" viewBox="0 0 427 306" fill="none" xmlns="http://www.w3.org/2000/svg">
<path d="M380.747 171.126C363.394 165.058 335.259 162.084 320.655 161.16C318.708 161.037 317.06 159.778 315.983 158.152C311.903 151.993 304.086 149.411 298.685 148.493C294.045 147.706 289.29 147.561 284.514 147.561C272.65 147.561 271.002 148.87 267.706 150.834C264.032 153.023 258.478 159.344 253.205 164.908C247.932 170.472 244.307 172.763 241.011 173.745C237.716 174.727 228.488 174.399 223.215 173.745C218.996 173.221 215.085 170.254 213.657 168.835C212.805 168.13 210.522 165.985 206.736 162.012C204.664 159.837 202.141 157.114 199.156 153.779C188.61 141.997 186.303 114.503 183.337 104.684C180.371 94.8652 154.665 81.4459 139.835 72.2814C125.004 63.117 118.413 59.5167 102.923 51.3342C87.4338 43.1516 35.692 14.3491 15.259 4.20275C-2.81113 -4.77023 -0.00359559 2.12742 2.25507 10.8604C2.79117 12.9332 1.52342 14.9278 0.555907 16.8377C-1.41135 20.7211 2.16956 26.3794 6.17806 31.1089C8.56445 33.9245 9.20334 40.4721 10.8214 43.7894C12.142 46.4969 14.3889 49.6617 16.7308 52.7269C18.1622 54.6004 17.7604 57.3434 18.1139 59.6745C18.6953 63.5076 23.6211 67.7769 28.3527 72.2368C30.2867 74.0597 30.5094 77.6544 31.8757 79.934C34.336 84.0389 41.5404 89.2023 46.7691 92.9498L46.9884 93.107C48.7173 94.3462 49.2147 96.7496 50.2198 98.6243C52.0804 102.095 58.293 105.368 65.5298 111.221C66.0669 111.655 66.4989 112.205 66.8214 112.816C71.6628 121.988 72.5202 116.486 80.1834 127.268C88.0929 138.396 84.1382 130.868 87.4338 141.669C90.7295 152.47 102.264 180.618 118.413 205.82C134.562 231.022 126.323 229.059 113.799 243.787C104.616 254.587 71.2891 270.245 51.8351 278.411C49.1654 279.532 47.9661 282.658 49.3704 285.19C54.4578 294.363 62.9811 306.635 69.6373 305.974C79.5242 304.992 93.6956 294.846 104.571 288.3C115.447 281.754 122.697 281.427 134.562 280.445C146.426 279.463 157.961 278.481 184.985 273.572C212.01 268.662 215.964 262.771 230.465 255.897C241.895 250.48 262.154 233.392 271.259 225.167C271.532 224.921 271.764 224.655 271.982 224.36C274.103 221.476 281.932 211.596 299.344 191.092C322.414 163.926 347.131 173.09 371.19 176.69C395.248 180.291 410.408 191.419 419.306 195.347C428.204 199.274 429.193 196.983 423.261 191.419C417.329 185.855 404.146 179.309 380.747 171.126Z" fill="#474747"/>
</svg>
