<svg width="305" height="117" viewBox="0 0 305 117" fill="none" xmlns="http://www.w3.org/2000/svg">
<path d="M251.733 116.736C249.685 116.736 247.381 116.352 244.821 115.584C242.346 114.816 239.957 113.835 237.653 112.64L243.029 100.992C244.65 101.76 246.144 102.357 247.509 102.784C248.874 103.296 249.984 103.552 250.837 103.552C252.885 103.552 254.592 102.997 255.957 101.888C257.408 100.864 258.56 99.3281 259.413 97.2801L266.965 79.6161L288.597 25.6001H304.213L274.517 96.3841C272.725 100.48 270.89 104.064 269.013 107.136C267.221 110.208 264.96 112.555 262.229 114.176C259.498 115.883 256 116.736 251.733 116.736ZM263.125 89.6001L234.453 25.6001H250.069L272.341 79.4881L276.949 89.6001H263.125Z" fill="#3C3C43"/>
<path d="M199.061 91.136C192.661 91.136 186.944 89.728 181.909 86.912C176.96 84.0106 173.077 80.0426 170.261 75.008C167.445 69.9733 166.037 64.1706 166.037 57.6C166.037 51.0293 167.402 45.2266 170.133 40.192C172.949 35.1573 176.832 31.232 181.781 28.416C186.73 25.5146 192.405 24.064 198.805 24.064C205.205 24.064 210.88 25.5146 215.829 28.416C220.778 31.232 224.618 35.1573 227.349 40.192C230.165 45.2266 231.573 51.0293 231.573 57.6C231.573 64.1706 230.208 69.9733 227.477 75.008C224.746 80.0426 220.906 84.0106 215.957 86.912C211.008 89.728 205.376 91.136 199.061 91.136ZM199.061 77.952C202.56 77.952 205.674 77.0986 208.405 75.392C211.136 73.6 213.269 71.2106 214.805 68.224C216.341 65.152 217.109 61.6106 217.109 57.6C217.109 53.5893 216.298 50.0906 214.677 47.104C213.141 44.032 211.008 41.6426 208.277 39.936C205.546 38.144 202.389 37.248 198.805 37.248C195.221 37.248 192.064 38.1013 189.333 39.808C186.602 41.5146 184.469 43.904 182.933 46.976C181.397 50.048 180.629 53.5893 180.629 57.6C180.629 61.6106 181.397 65.152 182.933 68.224C184.554 71.2106 186.73 73.6 189.461 75.392C192.277 77.0986 195.477 77.952 199.061 77.952Z" fill="#3C3C43"/>
<path d="M139.371 89.6V0H153.707V89.6H139.371Z" fill="#3C3C43"/>
<path d="M111.286 89.6L110.646 77.568V56.704C110.646 52.352 110.177 48.7253 109.238 45.824C108.385 42.8373 106.934 40.576 104.886 39.04C102.923 37.4186 100.278 36.608 96.9501 36.608C93.8781 36.608 91.1901 37.248 88.8861 38.528C86.5821 39.808 84.6194 41.8133 82.9981 44.544L70.4541 39.936C71.8194 37.12 73.6114 34.5173 75.8301 32.128C78.1341 29.6533 80.9928 27.6906 84.4061 26.24C87.9048 24.7893 92.0861 24.064 96.9501 24.064C103.179 24.064 108.385 25.3013 112.566 27.776C116.747 30.1653 119.819 33.6213 121.782 38.144C123.83 42.6666 124.854 48.128 124.854 54.528L124.47 89.6H111.286ZM92.8541 91.136C85.1741 91.136 79.2008 89.4293 74.9341 86.016C70.7528 82.6026 68.6621 77.7813 68.6621 71.552C68.6621 64.896 70.8808 59.8186 75.3181 56.32C79.8408 52.8213 86.1128 51.072 94.1341 51.072H111.286V62.08H98.7421C93.0248 62.08 89.0141 62.8906 86.7101 64.512C84.4061 66.048 83.2541 68.2666 83.2541 71.168C83.2541 73.6426 84.2354 75.6053 86.1981 77.056C88.2461 78.4213 91.0621 79.104 94.6461 79.104C97.8888 79.104 100.705 78.3786 103.094 76.928C105.483 75.4773 107.318 73.5573 108.598 71.168C109.963 68.7786 110.646 66.0906 110.646 63.104H114.87C114.87 71.808 113.121 78.6773 109.622 83.712C106.123 88.6613 100.534 91.136 92.8541 91.136Z" fill="#3C3C43"/>
<path d="M0 89.6V0H14.336V89.6H0ZM43.392 89.6V56.832H57.728V89.6H43.392ZM43.392 56.832C43.392 51.712 42.7947 47.7867 41.6 45.056C40.4053 42.24 38.7413 40.2773 36.608 39.168C34.56 38.0587 32.1707 37.504 29.44 37.504C24.576 37.4187 20.8213 38.9973 18.176 42.24C15.616 45.4827 14.336 50.1333 14.336 56.192H8.832C8.832 49.4507 9.81333 43.6907 11.776 38.912C13.824 34.048 16.6827 30.3787 20.352 27.904C24.0213 25.344 28.3733 24.064 33.408 24.064C38.4427 24.064 42.7947 25.088 46.464 27.136C50.1333 29.184 52.9067 32.384 54.784 36.736C56.7467 41.0027 57.728 46.592 57.728 53.504V56.832H43.392Z" fill="#3C3C43"/>
</svg>
